# xmcd
#
# Track frame offsets:
# 150
# 28797
# 76156
# 103010
# 129287
# 168027
# 197211
#
# Disc length: 3032 seconds
#
# Revision: 0
# Processed by: cddbd v1.5.1PL2 Copyright (c) Steve Scherf et al.
# Submitted via: MacMP3 Pro 5.0 (http://mp3.act2.co.jp/)
#
DISCID=4d0bd607
DTITLE=MISIA - The Glory Day
DYEAR=1900
DGENRE=
TTITLE0=Into The Light
TTITLE1=Key Of Love
TTITLE2=The Glory Day
TTITLE3=Melody
TTITLE4=Into The Light
TTITLE5=Key Of Love
TTITLE6=The Glory Day
EXTD=
EXTT0=
EXTT1=
EXTT2=
EXTT3=
EXTT4=
EXTT5=
EXTT6=
PLAYORDER=
